<svg width="12" height="7" viewBox="0 0 12 7" fill="none" xmlns="http://www.w3.org/2000/svg">
<path d="M5.575 6.77498C5.44167 6.77498 5.31267 6.74998 5.188 6.69998C5.06267 6.64997 4.95833 6.58331 4.875 6.49998L0.275 1.89998C0.0916663 1.71664 0 1.48331 0 1.19998C0 0.916642 0.0916663 0.683309 0.275 0.499975C0.458333 0.316642 0.691667 0.224976 0.975 0.224976C1.25833 0.224976 1.49167 0.316642 1.675 0.499975L5.575 4.39998L9.475 0.499975C9.65833 0.316642 9.89167 0.224976 10.175 0.224976C10.4583 0.224976 10.6917 0.316642 10.875 0.499975C11.0583 0.683309 11.15 0.916642 11.15 1.19998C11.15 1.48331 11.0583 1.71664 10.875 1.89998L6.275 6.49998C6.175 6.59998 6.06667 6.67064 5.95 6.71198C5.83333 6.75397 5.70833 6.77498 5.575 6.77498Z" fill="black"/>
</svg>
