<svg width="24" height="24" viewBox="0 0 24 24" fill="none" xmlns="http://www.w3.org/2000/svg">
<g clip-path="url(#clip0_16_243)">
<path d="M18.9976 4H17.9976V2H15.9976V4H7.99756V2H5.99756V4H4.99756C3.88756 4 3.00756 4.9 3.00756 6L2.99756 20C2.99756 21.1 3.88756 22 4.99756 22H18.9976C20.0976 22 20.9976 21.1 20.9976 20V6C20.9976 4.9 20.0976 4 18.9976 4ZM18.9976 20H4.99756V10H18.9976V20ZM8.99756 14H6.99756V12H8.99756V14ZM12.9976 14H10.9976V12H12.9976V14ZM16.9976 14H14.9976V12H16.9976V14ZM8.99756 18H6.99756V16H8.99756V18ZM12.9976 18H10.9976V16H12.9976V18ZM16.9976 18H14.9976V16H16.9976V18Z" fill="black"/>
</g>
<defs>
<clipPath id="clip0_16_243">
<rect width="24" height="24" fill="white" transform="translate(-0.00244141)"/>
</clipPath>
</defs>
</svg>
