<svg width="16" height="17" viewBox="0 0 16 17" fill="none" xmlns="http://www.w3.org/2000/svg">
<g clip-path="url(#clip0_89_154)">
<path fill-rule="evenodd" clip-rule="evenodd" d="M1.885 1.01115C2.05997 0.836436 2.27008 0.700905 2.50139 0.613537C2.73271 0.526169 2.97995 0.488958 3.22674 0.50437C3.47352 0.519782 3.71421 0.587465 3.93286 0.702935C4.15151 0.818404 4.34312 0.979023 4.495 1.17415L6.29 3.48015C6.619 3.90315 6.735 4.45415 6.605 4.97415L6.058 7.16415C6.02991 7.27759 6.03154 7.39635 6.06272 7.50898C6.0939 7.62161 6.15358 7.7243 6.236 7.80715L8.693 10.2641C8.77595 10.3467 8.87881 10.4065 8.99163 10.4377C9.10445 10.4689 9.22341 10.4704 9.337 10.4421L11.526 9.89515C11.7826 9.83136 12.0504 9.82656 12.3092 9.88112C12.5679 9.93568 12.811 10.0482 13.02 10.2101L15.326 12.0041C16.155 12.6491 16.231 13.8741 15.489 14.6151L14.455 15.6491C13.715 16.3891 12.609 16.7141 11.578 16.3511C8.93867 15.4237 6.54254 13.9129 4.568 11.9311C2.58637 9.9569 1.07555 7.56112 0.147998 4.92215C-0.214002 3.89215 0.110998 2.78515 0.850998 2.04515L1.885 1.01115Z" fill="white"/>
</g>
<defs>
<clipPath id="clip0_89_154">
<rect width="16" height="16" fill="white" transform="translate(0 0.5)"/>
</clipPath>
</defs>
</svg>
