<svg width="16" height="16" viewBox="0 0 16 16" fill="none" xmlns="http://www.w3.org/2000/svg">
<path d="M12.736 3.96993C12.8043 3.9003 12.8857 3.84498 12.9756 3.80722C13.0655 3.76945 13.162 3.75 13.2595 3.75C13.357 3.75 13.4535 3.76945 13.5434 3.80722C13.6333 3.84498 13.7148 3.9003 13.783 3.96993C14.069 4.25893 14.073 4.72593 13.793 5.01993L7.88001 12.0099C7.81288 12.0837 7.73141 12.1429 7.64059 12.1841C7.54977 12.2252 7.45151 12.2474 7.35182 12.2493C7.25213 12.2511 7.1531 12.2327 7.0608 12.1949C6.9685 12.1572 6.88487 12.1011 6.81501 12.0299L3.21701 8.38393C3.07825 8.24242 3.00052 8.05213 3.00052 7.85393C3.00052 7.65574 3.07825 7.46545 3.21701 7.32393C3.28526 7.2543 3.36671 7.19898 3.4566 7.16122C3.54649 7.12345 3.64301 7.104 3.74051 7.104C3.83801 7.104 3.93453 7.12345 4.02442 7.16122C4.11431 7.19898 4.19576 7.2543 4.26401 7.32393L7.31601 10.4169L12.716 3.99193L12.736 3.96993Z" fill="black"/>
</svg>
