<svg width="24" height="24" viewBox="0 0 24 24" fill="none" xmlns="http://www.w3.org/2000/svg">
<path d="M12 12.708L6.75399 17.954C6.66065 18.0473 6.54599 18.0973 6.40999 18.104C6.27399 18.1107 6.15265 18.0607 6.04599 17.954C5.93932 17.8473 5.88599 17.7293 5.88599 17.6C5.88599 17.4707 5.93932 17.3527 6.04599 17.246L11.292 12L6.04599 6.75399C5.95265 6.66065 5.90265 6.54599 5.89599 6.40999C5.88932 6.27399 5.93932 6.15265 6.04599 6.04599C6.15265 5.93932 6.27065 5.88599 6.39999 5.88599C6.52932 5.88599 6.64732 5.93932 6.75399 6.04599L12 11.292L17.246 6.04599C17.3393 5.95265 17.4543 5.90265 17.591 5.89599C17.7263 5.88932 17.8473 5.93932 17.954 6.04599C18.0607 6.15265 18.114 6.27065 18.114 6.39999C18.114 6.52932 18.0607 6.64732 17.954 6.75399L12.708 12L17.954 17.246C18.0473 17.3393 18.0973 17.4543 18.104 17.591C18.1107 17.7263 18.0607 17.8473 17.954 17.954C17.8473 18.0607 17.7293 18.114 17.6 18.114C17.4707 18.114 17.3527 18.0607 17.246 17.954L12 12.708Z" fill="white"/>
</svg>
