<svg width="12" height="13" viewBox="0 0 12 13" fill="none" xmlns="http://www.w3.org/2000/svg">
<path d="M11.02 3.83333L7.33334 0.146667C7.23967 0.0528717 7.11257 0.000116701 6.98001 0H5.33334C4.84711 0 4.3808 0.193154 4.03698 0.536971C3.69316 0.880788 3.50001 1.3471 3.50001 1.83333V2.66667H2.66668C2.18045 2.66667 1.71413 2.85982 1.37031 3.20364C1.0265 3.54745 0.833344 4.01377 0.833344 4.5V11.1667C0.833344 11.6529 1.0265 12.1192 1.37031 12.463C1.71413 12.8068 2.18045 13 2.66668 13H7.33334C7.81957 13 8.28589 12.8068 8.62971 12.463C8.97352 12.1192 9.16668 11.6529 9.16668 11.1667V10.3333H9.33334C9.81957 10.3333 10.2859 10.1402 10.6297 9.79636C10.9735 9.45255 11.1667 8.98623 11.1667 8.5V4.16667C11.1614 4.04107 11.1091 3.92206 11.02 3.83333ZM7.50001 1.70667L9.46001 3.66667H7.50001V1.70667ZM8.16668 11.1667C8.16668 11.3877 8.07888 11.5996 7.9226 11.7559C7.76632 11.9122 7.55436 12 7.33334 12H2.66668C2.44566 12 2.2337 11.9122 2.07742 11.7559C1.92114 11.5996 1.83334 11.3877 1.83334 11.1667V4.5C1.83334 4.27899 1.92114 4.06702 2.07742 3.91074C2.2337 3.75446 2.44566 3.66667 2.66668 3.66667H3.50001V8.5C3.50001 8.98623 3.69316 9.45255 4.03698 9.79636C4.3808 10.1402 4.84711 10.3333 5.33334 10.3333H8.16668V11.1667ZM9.33334 9.33333H5.33334C5.11233 9.33333 4.90037 9.24554 4.74409 9.08926C4.58781 8.93298 4.50001 8.72101 4.50001 8.5V1.83333C4.50001 1.61232 4.58781 1.40036 4.74409 1.24408C4.90037 1.0878 5.11233 1 5.33334 1H6.50001V4.16667C6.50174 4.29874 6.55497 4.42491 6.64837 4.51831C6.74176 4.61171 6.86794 4.66494 7.00001 4.66667H10.1667V8.5C10.1667 8.72101 10.0789 8.93298 9.9226 9.08926C9.76632 9.24554 9.55436 9.33333 9.33334 9.33333Z" fill="black"/>
</svg>
