<svg width="17" height="18" viewBox="0 0 17 18" fill="none" xmlns="http://www.w3.org/2000/svg">
<g clip-path="url(#clip0_90_56)">
<path d="M7.77116 8.58203L0.234497 16.4782C0.319133 16.7781 0.471227 17.0547 0.679151 17.2869C0.887076 17.519 1.14533 17.7006 1.43416 17.8176C1.723 17.9347 2.03477 17.9841 2.34565 17.9622C2.65653 17.9403 2.95828 17.8476 3.22784 17.6912L11.708 12.8615L7.77116 8.58203Z" fill="#EA4335"/>
<path d="M15.392 7.24012L11.7249 5.13965L7.59711 8.76191L11.7417 12.8504L15.3809 10.7724C15.7033 10.6036 15.9733 10.3498 16.1617 10.0385C16.3501 9.72712 16.4497 9.37016 16.4497 9.00625C16.4497 8.64234 16.3501 8.28537 16.1617 7.97403C15.9733 7.66269 15.7033 7.40886 15.3809 7.24005L15.392 7.24012Z" fill="#FBBC04"/>
<path d="M0.234493 1.49512C0.188965 1.66354 0.166288 1.83731 0.167073 2.01177V15.9619C0.167522 16.1363 0.190178 16.3099 0.234493 16.4786L8.02951 8.78467L0.234493 1.49512Z" fill="#4285F4"/>
<path d="M7.82732 8.98661L11.7249 5.13963L3.25595 0.28739C2.93731 0.100789 2.57491 0.00196406 2.20566 0.000980463C1.28931 -0.000800455 0.483699 0.607383 0.234497 1.48926L7.82732 8.98661Z" fill="#34A853"/>
</g>
<defs>
<clipPath id="clip0_90_56">
<rect width="16.2827" height="18" fill="white" transform="translate(0.167053 0.000976562)"/>
</clipPath>
</defs>
</svg>
