<svg width="20" height="20" viewBox="0 0 20 20" fill="none" xmlns="http://www.w3.org/2000/svg">
<g clip-path="url(#clip0_90_67)">
<path d="M13.3333 10C13.3333 9.07986 13.0078 8.29427 12.3568 7.64323C11.7057 6.99219 10.9201 6.66667 10 6.66667C9.07986 6.66667 8.29427 6.99219 7.64323 7.64323C6.99219 8.29427 6.66667 9.07986 6.66667 10C6.66667 10.9201 6.99219 11.7057 7.64323 12.3568C8.29427 13.0078 9.07986 13.3333 10 13.3333C10.9201 13.3333 11.7057 13.0078 12.3568 12.3568C13.0078 11.7057 13.3333 10.9201 13.3333 10ZM15.1302 10C15.1302 11.4236 14.6311 12.6345 13.6328 13.6328C12.6345 14.6311 11.4236 15.1302 10 15.1302C8.57639 15.1302 7.36545 14.6311 6.36719 13.6328C5.36892 12.6345 4.86979 11.4236 4.86979 10C4.86979 8.57639 5.36892 7.36545 6.36719 6.36719C7.36545 5.36892 8.57639 4.86979 10 4.86979C11.4236 4.86979 12.6345 5.36892 13.6328 6.36719C14.6311 7.36545 15.1302 8.57639 15.1302 10ZM16.5365 4.66146C16.5365 4.99132 16.4193 5.27344 16.1849 5.50781C15.9505 5.74219 15.6684 5.85938 15.3385 5.85938C15.0087 5.85938 14.7266 5.74219 14.4922 5.50781C14.2578 5.27344 14.1406 4.99132 14.1406 4.66146C14.1406 4.3316 14.2578 4.04948 14.4922 3.8151C14.7266 3.58073 15.0087 3.46354 15.3385 3.46354C15.6684 3.46354 15.9505 3.58073 16.1849 3.8151C16.4193 4.04948 16.5365 4.3316 16.5365 4.66146ZM10 1.79688C9.93924 1.79688 9.6072 1.7947 9.00391 1.79036C8.40061 1.78602 7.94271 1.78602 7.63021 1.79036C7.31771 1.7947 6.89887 1.80773 6.3737 1.82943C5.84852 1.85113 5.40148 1.89453 5.03255 1.95964C4.66363 2.02474 4.3533 2.10503 4.10156 2.20052C3.66753 2.37413 3.28559 2.62587 2.95573 2.95573C2.62587 3.28559 2.37413 3.66753 2.20052 4.10156C2.10503 4.3533 2.02474 4.66363 1.95964 5.03255C1.89453 5.40148 1.85113 5.84852 1.82943 6.3737C1.80773 6.89887 1.7947 7.31771 1.79036 7.63021C1.78602 7.94271 1.78602 8.40061 1.79036 9.00391C1.7947 9.6072 1.79688 9.93924 1.79688 10C1.79688 10.0608 1.7947 10.3928 1.79036 10.9961C1.78602 11.5994 1.78602 12.0573 1.79036 12.3698C1.7947 12.6823 1.80773 13.1011 1.82943 13.6263C1.85113 14.1515 1.89453 14.5985 1.95964 14.9674C2.02474 15.3364 2.10503 15.6467 2.20052 15.8984C2.37413 16.3325 2.62587 16.7144 2.95573 17.0443C3.28559 17.3741 3.66753 17.6259 4.10156 17.7995C4.3533 17.895 4.66363 17.9753 5.03255 18.0404C5.40148 18.1055 5.84852 18.1489 6.3737 18.1706C6.89887 18.1923 7.31771 18.2053 7.63021 18.2096C7.94271 18.214 8.40061 18.214 9.00391 18.2096C9.6072 18.2053 9.93924 18.2031 10 18.2031C10.0608 18.2031 10.3928 18.2053 10.9961 18.2096C11.5994 18.214 12.0573 18.214 12.3698 18.2096C12.6823 18.2053 13.1011 18.1923 13.6263 18.1706C14.1515 18.1489 14.5985 18.1055 14.9674 18.0404C15.3364 17.9753 15.6467 17.895 15.8984 17.7995C16.3325 17.6259 16.7144 17.3741 17.0443 17.0443C17.3741 16.7144 17.6259 16.3325 17.7995 15.8984C17.895 15.6467 17.9753 15.3364 18.0404 14.9674C18.1055 14.5985 18.1489 14.1515 18.1706 13.6263C18.1923 13.1011 18.2053 12.6823 18.2096 12.3698C18.214 12.0573 18.214 11.5994 18.2096 10.9961C18.2053 10.3928 18.2031 10.0608 18.2031 10C18.2031 9.93924 18.2053 9.6072 18.2096 9.00391C18.214 8.40061 18.214 7.94271 18.2096 7.63021C18.2053 7.31771 18.1923 6.89887 18.1706 6.3737C18.1489 5.84852 18.1055 5.40148 18.0404 5.03255C17.9753 4.66363 17.895 4.3533 17.7995 4.10156C17.6259 3.66753 17.3741 3.28559 17.0443 2.95573C16.7144 2.62587 16.3325 2.37413 15.8984 2.20052C15.6467 2.10503 15.3364 2.02474 14.9674 1.95964C14.5985 1.89453 14.1515 1.85113 13.6263 1.82943C13.1011 1.80773 12.6823 1.7947 12.3698 1.79036C12.0573 1.78602 11.5994 1.78602 10.9961 1.79036C10.3928 1.7947 10.0608 1.79688 10 1.79688ZM20 10C20 11.9878 19.9783 13.3637 19.9349 14.1276C19.8481 15.9332 19.3099 17.3307 18.3203 18.3203C17.3307 19.3099 15.9332 19.8481 14.1276 19.9349C13.3637 19.9783 11.9878 20 10 20C8.01215 20 6.63628 19.9783 5.8724 19.9349C4.06684 19.8481 2.66927 19.3099 1.67969 18.3203C0.690104 17.3307 0.15191 15.9332 0.0651042 14.1276C0.0217014 13.3637 0 11.9878 0 10C0 8.01215 0.0217014 6.63628 0.0651042 5.8724C0.15191 4.06684 0.690104 2.66927 1.67969 1.67969C2.66927 0.690104 4.06684 0.15191 5.8724 0.0651042C6.63628 0.0217014 8.01215 0 10 0C11.9878 0 13.3637 0.0217014 14.1276 0.0651042C15.9332 0.15191 17.3307 0.690104 18.3203 1.67969C19.3099 2.66927 19.8481 4.06684 19.9349 5.8724C19.9783 6.63628 20 8.01215 20 10Z" fill="white"/>
</g>
<defs>
<clipPath id="clip0_90_67">
<rect width="20" height="20" fill="white"/>
</clipPath>
</defs>
</svg>
