<svg width="20" height="20" viewBox="0 0 20 20" fill="none" xmlns="http://www.w3.org/2000/svg">
<g clip-path="url(#clip0_90_69)">
<path d="M18.4375 0H1.5625C0.699167 0 0 0.7 0 1.5625V18.4375C0 19.3008 0.7 20 1.5625 20H18.4375C19.3008 20 20 19.3 20 18.4375V1.5625C20 0.699167 19.3 0 18.4375 0ZM10 15.625C9.50667 15.625 9.02555 15.5917 8.55667 15.525C8.08833 15.855 5.37917 17.7575 5.12333 17.7933C5.12333 17.7933 5.01917 17.8342 4.93 17.7817C4.84083 17.7292 4.85667 17.5908 4.85667 17.5908C4.88333 17.4075 5.55917 15.0758 5.68333 14.6467C3.39583 13.5133 1.875 11.5058 1.875 9.21917C1.875 5.68083 5.5125 2.8125 10 2.8125C14.4875 2.8125 18.125 5.68083 18.125 9.21917C18.125 12.7575 14.4875 15.625 10 15.625ZM6.70833 8.2225H5.97667V11.0075C5.97667 11.2542 5.76667 11.455 5.5075 11.455C5.24833 11.455 5.03917 11.255 5.03917 11.0075V8.2225H4.3075C4.19168 8.21394 4.08339 8.1619 4.00435 8.07681C3.92531 7.99172 3.88139 7.87988 3.88139 7.76375C3.88139 7.64762 3.92531 7.53578 4.00435 7.45069C4.08339 7.3656 4.19168 7.31356 4.3075 7.305H6.7075C6.82332 7.31356 6.93161 7.3656 7.01065 7.45069C7.08968 7.53578 7.13361 7.64762 7.13361 7.76375C7.13361 7.87988 7.08968 7.99172 7.01065 8.07681C6.93161 8.1619 6.82332 8.21394 6.7075 8.2225M15.8633 10.6867C15.9007 10.7357 15.9279 10.7917 15.9435 10.8513C15.9591 10.911 15.9627 10.9731 15.9542 11.0342C15.9456 11.095 15.925 11.1536 15.8937 11.2065C15.8624 11.2595 15.8209 11.3057 15.7717 11.3425C15.6906 11.404 15.5917 11.4374 15.49 11.4375C15.4173 11.4378 15.3455 11.421 15.2804 11.3886C15.2153 11.3562 15.1586 11.309 15.115 11.2508L14.0158 9.795L13.8533 9.9575V10.98C13.8531 11.1042 13.8037 11.2233 13.716 11.3112C13.6282 11.3991 13.5092 11.4487 13.385 11.4492C13.2606 11.4492 13.1412 11.3997 13.0532 11.3118C12.9653 11.2238 12.9158 11.1044 12.9158 10.98V7.77333C12.9209 7.65243 12.9725 7.53818 13.0599 7.45443C13.1472 7.37069 13.2636 7.32394 13.3846 7.32394C13.5056 7.32394 13.6219 7.37069 13.7093 7.45443C13.7966 7.53818 13.8482 7.65243 13.8533 7.77333V8.78167L15.1617 7.47333C15.2308 7.40547 15.324 7.36772 15.4208 7.36833C15.5375 7.36833 15.6558 7.41917 15.7442 7.5075C15.8243 7.58657 15.8731 7.69193 15.8817 7.80417C15.8859 7.85643 15.8788 7.90899 15.861 7.95829C15.8432 8.0076 15.815 8.05251 15.7783 8.09L14.71 9.1575L15.8633 10.6867ZM8.905 7.76833C8.82583 7.54333 8.58583 7.31167 8.28 7.305C7.975 7.31167 7.735 7.54333 7.65583 7.7675L6.535 10.7183C6.3925 11.16 6.51667 11.325 6.64583 11.385C6.73957 11.4265 6.84082 11.4483 6.94333 11.4492C7.13917 11.4492 7.28833 11.37 7.33333 11.2425L7.56583 10.6342H8.995L9.2275 11.2425C9.2725 11.37 9.42167 11.4492 9.6175 11.4492C9.72007 11.4481 9.82132 11.4259 9.915 11.3842C10.0442 11.325 10.1683 11.1608 10.0258 10.7175L8.905 7.76833ZM7.8125 9.80417L8.28083 8.47417L8.74833 9.80417H7.8125ZM12.7333 10.9567C12.7303 11.0731 12.6814 11.1836 12.5972 11.2641C12.5131 11.3446 12.4006 11.3887 12.2842 11.3867H10.7808C10.6643 11.3889 10.5515 11.345 10.4672 11.2644C10.3829 11.1838 10.3339 11.0732 10.3308 10.9567V7.77333C10.3308 7.515 10.5458 7.305 10.81 7.305C11.0742 7.305 11.2883 7.515 11.2883 7.77333V10.5275H12.2842C12.5317 10.5275 12.7342 10.72 12.7342 10.9567" fill="white"/>
</g>
<defs>
<clipPath id="clip0_90_69">
<rect width="20" height="20" fill="white"/>
</clipPath>
</defs>
</svg>
