<svg width="16" height="17" viewBox="0 0 16 17" fill="none" xmlns="http://www.w3.org/2000/svg">
<path d="M6.74333 15.041C7.14733 15.3743 7.56867 15.679 8 15.9763C8.43226 15.6829 8.85155 15.3709 9.25667 15.041C9.932 14.4865 10.5676 13.8852 11.1587 13.2417C12.5213 11.7517 14 9.59166 14 7.16699C14 6.37906 13.8448 5.59885 13.5433 4.87089C13.2417 4.14294 12.7998 3.4815 12.2426 2.92435C11.6855 2.3672 11.0241 1.92524 10.2961 1.62372C9.56815 1.32219 8.78793 1.16699 8 1.16699C7.21207 1.16699 6.43185 1.32219 5.7039 1.62372C4.97595 1.92524 4.31451 2.3672 3.75736 2.92435C3.20021 3.4815 2.75825 4.14294 2.45672 4.87089C2.15519 5.59885 2 6.37906 2 7.16699C2 9.59166 3.47867 11.751 4.84133 13.2417C5.43241 13.8854 6.06798 14.4863 6.74333 15.041ZM8 9.33366C7.42536 9.33366 6.87426 9.10539 6.46794 8.69906C6.06161 8.29273 5.83333 7.74163 5.83333 7.16699C5.83333 6.59236 6.06161 6.04126 6.46794 5.63493C6.87426 5.2286 7.42536 5.00033 8 5.00033C8.57464 5.00033 9.12574 5.2286 9.53206 5.63493C9.93839 6.04126 10.1667 6.59236 10.1667 7.16699C10.1667 7.74163 9.93839 8.29273 9.53206 8.69906C9.12574 9.10539 8.57464 9.33366 8 9.33366Z" fill="white"/>
</svg>
