<svg width="175" height="44" viewBox="0 0 175 44" fill="none" xmlns="http://www.w3.org/2000/svg">
<path fill-rule="evenodd" clip-rule="evenodd" d="M15.323 32.244C15.491 32.244 15.491 32.142 15.457 32.006L12.245 22.862C12.076 22.354 11.907 22.354 11.738 22.862L8.76 32.006C8.695 32.176 8.76 32.244 8.864 32.244H15.324H15.323ZM11.805 18.697C12.21 17.578 12.346 17.375 12.55 17.375C12.753 17.375 12.887 17.545 13.294 18.594C13.801 19.882 19.109 33.868 21.174 39.017C22.392 42.031 23.374 42.574 24.084 42.776C24.591 42.946 25.099 42.979 25.437 42.979C25.64 42.979 25.776 43.012 25.776 43.184C25.776 43.386 25.469 43.454 25.099 43.454C24.591 43.454 22.122 43.454 19.788 43.386C19.145 43.353 18.772 43.353 18.772 43.15C18.772 43.012 18.875 42.946 19.009 42.912C19.213 42.843 19.416 42.54 19.213 41.997L16.066 33.666C16 33.529 15.932 33.463 15.762 33.463H8.492C8.322 33.463 8.219 33.564 8.151 33.734L6.122 39.73C5.819 40.576 5.647 41.389 5.647 41.998C5.647 42.675 6.359 42.98 6.934 42.98H7.272C7.509 42.98 7.61 43.048 7.61 43.185C7.61 43.387 7.406 43.455 7.103 43.455C6.292 43.455 4.837 43.355 4.466 43.355C4.091 43.355 2.231 43.455 0.641 43.455C0.204 43.455 0 43.387 0 43.185C0 43.048 0.134 42.98 0.303 42.98C0.541 42.98 1.016 42.947 1.285 42.913C2.841 42.709 3.518 41.423 4.125 39.73L11.805 18.697ZM42.565 38.847C42.631 41.626 42.969 42.505 43.884 42.777C44.525 42.946 45.271 42.979 45.574 42.979C45.744 42.979 45.846 43.047 45.846 43.184C45.846 43.386 45.64 43.453 45.238 43.453C43.306 43.453 41.956 43.353 41.65 43.353C41.347 43.353 39.925 43.453 38.404 43.453C38.066 43.453 37.862 43.42 37.862 43.183C37.862 43.047 37.962 42.979 38.134 42.979C38.404 42.979 39.012 42.946 39.519 42.776C40.365 42.54 40.534 41.558 40.534 38.475L40.569 19.069C40.569 17.749 40.671 17.375 40.941 17.375C41.212 17.375 41.788 18.121 42.125 18.459C42.631 19.035 47.672 24.489 52.881 30.075C56.231 33.665 59.918 37.798 60.996 38.915L60.627 21.71C60.593 19.51 60.357 18.764 59.309 18.493C58.699 18.357 57.921 18.323 57.65 18.323C57.415 18.323 57.378 18.221 57.378 18.086C57.378 17.884 57.65 17.849 58.055 17.849C59.578 17.849 61.203 17.952 61.575 17.952C61.947 17.952 63.062 17.849 64.449 17.849C64.821 17.849 65.056 17.884 65.056 18.086C65.056 18.221 64.925 18.323 64.687 18.323C64.516 18.323 64.278 18.323 63.874 18.425C62.758 18.662 62.622 19.407 62.622 21.44L62.552 41.286C62.552 43.522 62.487 43.691 62.25 43.691C61.98 43.691 61.575 43.318 59.78 41.522C59.41 41.185 54.538 36.206 50.953 32.346C47.9795 29.1334 45.0367 25.8926 42.125 22.624L42.565 38.847ZM99.716 23.521C99.85 23.004 99.916 22.553 99.916 22.168C99.916 21.823 99.866 21.451 99.776 21.046C99.6783 20.6414 99.5015 20.2601 99.256 19.924C98.9853 19.5609 98.6429 19.2573 98.25 19.032C97.828 18.785 97.271 18.658 96.585 18.658C95.318 18.658 94.083 19.014 92.877 19.723C91.667 20.433 90.537 21.363 89.484 22.513C88.3856 23.7266 87.4129 25.0483 86.581 26.458C85.7173 27.8977 84.9586 29.398 84.311 30.947C83.7066 32.3736 83.2164 33.8459 82.845 35.35C82.5 36.77 82.329 38.017 82.329 39.09C82.329 40.32 82.565 41.317 83.045 42.084C83.525 42.851 84.32 43.232 85.431 43.232C86.542 43.232 87.673 42.888 88.822 42.198C89.9732 41.5067 91.0346 40.6757 91.982 39.724C92.942 38.764 93.764 37.806 94.456 36.847C95.146 35.887 95.586 35.138 95.778 34.602L98.825 26.142C99.285 24.912 99.581 24.04 99.716 23.521ZM97.825 38.932C97.575 39.854 97.45 40.679 97.45 41.408C97.45 42.406 98.487 42.904 99.446 42.904C100.212 42.904 100.902 42.684 101.516 42.243C102.108 41.8188 102.64 41.315 103.095 40.746C103.538 40.189 103.9 39.632 104.188 39.075C104.475 38.519 104.678 38.124 104.664 38.219L105.411 38.622C105.348 38.72 105.06 39.259 104.678 39.91C104.267 40.5988 103.764 41.2285 103.183 41.782C102.547 42.3939 101.83 42.9164 101.053 43.335C100.252 43.777 99.312 44 98.238 44C95.709 44 94.445 42.848 94.445 40.543C94.445 40.276 94.501 39.805 94.616 39.131C94.732 38.463 94.886 37.857 95.079 37.321H94.961C94.3598 38.0494 93.7474 38.7685 93.124 39.478C92.4183 40.2794 91.6382 41.0121 90.794 41.666C89.9225 42.3443 88.9661 42.9057 87.949 43.336C86.917 43.776 85.763 44 84.502 44C83.693 44 83.181 43.739 82.406 43.396C81.673 43.074 81.111 42.524 80.535 41.929C79.96 41.334 79.51 40.574 79.184 39.653C78.859 38.732 78.697 37.638 78.697 36.373C78.697 34.837 79.001 33.302 79.615 31.766C80.2377 30.2113 81.038 28.7339 82 27.363C82.978 25.96 83.995 24.809 85.28 23.619C86.498 22.4794 87.8055 21.4394 89.19 20.509C90.3362 19.7337 91.5697 19.096 92.865 18.609C94.149 18.109 95.289 17.859 96.285 17.859C97.435 17.859 98.411 18.184 99.216 18.837C100.019 19.49 100.423 20.352 100.423 21.429H100.538L107.838 0.805H102.781L103.011 0H111.593L98.714 36.052C98.369 37.052 98.072 38.01 97.825 38.932ZM132.281 32.244C132.45 32.244 132.45 32.142 132.415 32.006L129.202 22.862C129.033 22.354 128.865 22.354 128.696 22.862L125.718 32.006C125.648 32.176 125.718 32.244 125.818 32.244H132.281ZM128.761 18.697C129.169 17.578 129.304 17.375 129.506 17.375C129.71 17.375 129.846 17.545 130.252 18.594C130.759 19.882 136.069 33.868 138.13 39.017C139.35 42.031 140.33 42.574 141.042 42.776C141.479 42.9146 141.935 42.9831 142.393 42.979C142.599 42.979 142.73 43.012 142.73 43.184C142.73 43.386 142.428 43.454 142.055 43.454C141.549 43.454 139.08 43.454 136.745 43.386C136.103 43.353 135.73 43.353 135.73 43.15C135.73 43.012 135.83 42.946 135.967 42.912C136.168 42.843 136.374 42.54 136.168 41.997L133.024 33.666C132.954 33.529 132.887 33.463 132.718 33.463H125.446C125.278 33.463 125.177 33.564 125.108 33.734L123.081 39.729C122.775 40.575 122.606 41.388 122.606 41.997C122.606 42.674 123.315 42.979 123.893 42.979H124.231C124.468 42.979 124.568 43.047 124.568 43.184C124.568 43.386 124.365 43.454 124.062 43.454C123.249 43.454 121.795 43.354 121.422 43.354C121.05 43.354 119.189 43.454 117.6 43.454C117.162 43.454 116.959 43.386 116.959 43.184C116.959 43.047 117.093 42.979 117.262 42.979C117.5 42.979 117.972 42.946 118.242 42.912C119.799 42.708 120.475 41.422 121.084 39.729L128.761 18.697ZM168.044 41.997C171.594 41.997 172.678 41.353 173.388 40.337C173.694 39.898 173.998 38.982 174.065 38.509C174.135 38.171 174.2 37.968 174.368 37.968C174.572 37.968 174.641 38.103 174.641 38.746C174.641 39.795 174.167 41.794 173.965 42.641C173.76 43.453 173.728 43.522 172.95 43.522C167.301 43.522 161.619 43.352 155.697 43.352C155.292 43.352 155.09 43.318 155.09 43.082C155.09 42.912 155.158 42.742 155.564 42.132C160.603 34.512 165.71 26.892 170.414 19.238H163.073C161.348 19.238 159.285 19.338 158.2 19.916C156.984 20.559 156.375 21.812 156.275 22.59C156.207 23.1 156.069 23.201 155.9 23.201C155.733 23.201 155.697 23.031 155.697 22.761C155.697 22.354 156.207 19.272 156.375 18.256C156.445 17.781 156.509 17.611 156.713 17.611C157.017 17.611 157.222 17.814 158.133 17.849C161.348 17.985 162.97 17.952 164.019 17.952H173.457C173.965 17.952 174.135 18.019 174.135 18.222C174.135 18.357 174.135 18.425 173.998 18.628C169.091 26.418 163.986 34.207 158.845 41.997H168.044Z" fill="black"/>
</svg>
