<svg width="175" height="44" viewBox="0 0 175 44" xmlns="http://www.w3.org/2000/svg">
    <path d="M15.323 32.244c.168 0 .168-.102.134-.238l-3.212-9.144c-.169-.508-.338-.508-.507 0L8.76 32.006c-.065.17 0 .238.104.238h6.46zm-3.518-13.547c.405-1.119.541-1.322.745-1.322.203 0 .337.17.744 1.219.507 1.288 5.815 15.274 7.88 20.423 1.218 3.014 2.2 3.557 2.91 3.759.507.17 1.015.203 1.353.203.203 0 .339.033.339.205 0 .202-.307.27-.677.27-.508 0-2.977 0-5.311-.068-.643-.033-1.016-.033-1.016-.236 0-.138.103-.204.237-.238.204-.069.407-.372.204-.915l-3.147-8.331c-.066-.137-.134-.203-.304-.203h-7.27c-.17 0-.273.101-.341.271L6.122 39.73c-.303.846-.475 1.659-.475 2.268 0 .677.712.982 1.287.982h.338c.237 0 .338.068.338.205 0 .202-.204.27-.507.27-.811 0-2.266-.1-2.637-.1-.375 0-2.235.1-3.825.1-.437 0-.641-.068-.641-.27 0-.137.134-.205.303-.205.238 0 .713-.033.982-.067 1.556-.204 2.233-1.49 2.84-3.183l7.68-21.032zm30.76 20.15c.066 2.779.404 3.658 1.319 3.93.641.169 1.387.202 1.69.202.17 0 .272.068.272.205 0 .202-.206.269-.608.269-1.932 0-3.282-.1-3.588-.1-.303 0-1.725.1-3.246.1-.338 0-.542-.033-.542-.27 0-.136.1-.204.272-.204.27 0 .878-.033 1.385-.203.846-.236 1.015-1.218 1.015-4.301l.035-19.406c0-1.32.102-1.694.372-1.694.271 0 .847.746 1.184 1.084.506.576 5.547 6.03 10.756 11.616 3.35 3.59 7.037 7.723 8.115 8.84l-.369-17.205c-.034-2.2-.27-2.946-1.318-3.217-.61-.136-1.388-.17-1.659-.17-.235 0-.272-.102-.272-.237 0-.202.272-.237.677-.237 1.523 0 3.148.103 3.52.103.372 0 1.487-.103 2.874-.103.372 0 .607.035.607.237 0 .135-.131.237-.369.237-.171 0-.409 0-.813.102-1.116.237-1.252.982-1.252 3.015l-.07 19.846c0 2.236-.065 2.405-.302 2.405-.27 0-.675-.373-2.47-2.169-.37-.337-5.242-5.316-8.827-9.176a689.058 689.058 0 0 1-8.828-9.722l.44 16.223zm57.151-15.326c.134-.517.2-.968.2-1.353 0-.345-.05-.717-.14-1.122a3.16 3.16 0 0 0-.52-1.122 3.307 3.307 0 0 0-1.006-.892c-.422-.247-.979-.374-1.665-.374-1.267 0-2.502.356-3.708 1.065-1.21.71-2.34 1.64-3.393 2.79a24.227 24.227 0 0 0-2.903 3.945 34.875 34.875 0 0 0-2.27 4.489 29.277 29.277 0 0 0-1.466 4.403c-.345 1.42-.516 2.667-.516 3.74 0 1.23.236 2.227.716 2.994.48.767 1.275 1.148 2.386 1.148 1.111 0 2.242-.344 3.391-1.034a16.296 16.296 0 0 0 3.16-2.474c.96-.96 1.782-1.918 2.474-2.877.69-.96 1.13-1.709 1.322-2.245l3.047-8.46c.46-1.23.756-2.102.891-2.621m-1.891 15.411c-.25.922-.375 1.747-.375 2.476 0 .998 1.037 1.496 1.996 1.496.766 0 1.456-.22 2.07-.661a7.946 7.946 0 0 0 1.579-1.497c.443-.557.805-1.114 1.093-1.671.287-.556.49-.951.476-.856l.747.403c-.063.098-.351.637-.733 1.288a8.863 8.863 0 0 1-1.495 1.872 9.726 9.726 0 0 1-2.13 1.553c-.801.442-1.741.665-2.815.665-2.529 0-3.793-1.152-3.793-3.457 0-.267.056-.738.171-1.412.116-.668.27-1.274.463-1.81h-.118a92.092 92.092 0 0 1-1.837 2.157 16.867 16.867 0 0 1-2.33 2.188 12.67 12.67 0 0 1-2.845 1.67c-1.032.44-2.186.664-3.447.664-.809 0-1.321-.261-2.096-.604-.733-.322-1.295-.872-1.871-1.467-.575-.595-1.025-1.355-1.351-2.276-.325-.921-.487-2.015-.487-3.28 0-1.536.304-3.071.918-4.607A21.734 21.734 0 0 1 82 27.363c.978-1.403 1.995-2.554 3.28-3.744a31.168 31.168 0 0 1 3.91-3.11 17.638 17.638 0 0 1 3.675-1.9c1.284-.5 2.424-.75 3.42-.75 1.15 0 2.126.325 2.931.978.803.653 1.207 1.515 1.207 2.592h.115l7.3-20.624h-5.057l.23-.805h8.582L98.714 36.052c-.345 1-.643 1.958-.89 2.88m34.457-6.688c.169 0 .169-.102.134-.238l-3.213-9.144c-.169-.508-.337-.508-.506 0l-2.978 9.144c-.07.17 0 .238.1.238h6.463zm-3.52-13.547c.408-1.119.543-1.322.745-1.322.204 0 .34.17.746 1.219.507 1.288 5.817 15.274 7.878 20.423 1.22 3.014 2.2 3.557 2.912 3.759a4.34 4.34 0 0 0 1.351.203c.206 0 .337.033.337.205 0 .202-.302.27-.675.27-.506 0-2.975 0-5.31-.068-.642-.033-1.015-.033-1.015-.236 0-.138.1-.204.237-.238.201-.069.407-.372.201-.915l-3.144-8.331c-.07-.137-.137-.203-.306-.203h-7.272c-.168 0-.269.101-.338.271l-2.027 5.995c-.306.846-.475 1.659-.475 2.268 0 .677.709.982 1.287.982h.338c.237 0 .337.068.337.205 0 .202-.203.27-.506.27-.813 0-2.267-.1-2.64-.1-.372 0-2.233.1-3.822.1-.438 0-.641-.068-.641-.27 0-.137.134-.205.303-.205.238 0 .71-.033.98-.067 1.557-.204 2.233-1.49 2.842-3.183l7.678-21.032zm39.283 23.3c3.55 0 4.634-.644 5.344-1.66.306-.439.61-1.355.677-1.828.07-.338.135-.541.303-.541.204 0 .273.135.273.778 0 1.049-.474 3.048-.676 3.895-.205.812-.237.881-1.015.881-5.649 0-11.331-.17-17.253-.17-.405 0-.607-.034-.607-.27 0-.17.068-.34.474-.95 5.039-7.62 10.146-15.24 14.85-22.894h-7.341c-1.725 0-3.788.1-4.873.678-1.216.643-1.825 1.896-1.925 2.674-.068.51-.206.611-.375.611-.167 0-.203-.17-.203-.44 0-.407.51-3.489.678-4.505.07-.475.134-.645.338-.645.304 0 .509.203 1.42.238 3.215.136 4.837.103 5.886.103h9.438c.508 0 .678.067.678.27 0 .135 0 .203-.137.406-4.907 7.79-10.012 15.579-15.153 23.369h9.2z" fill="#FFF" fill-rule="evenodd"/>
</svg>
