<svg width="80" height="80" viewBox="0 0 80 80" fill="none" xmlns="http://www.w3.org/2000/svg">
<path d="M44.1156 63.3846C43.9994 63.2685 43.9072 63.1306 43.8443 62.9789C43.7814 62.8271 43.749 62.6645 43.749 62.5002C43.749 62.3359 43.7814 62.1733 43.8443 62.0215C43.9072 61.8698 43.9994 61.7319 44.1156 61.6158L64.4812 41.2502H12.5C12.1685 41.2502 11.8505 41.1185 11.6161 40.8841C11.3817 40.6497 11.25 40.3317 11.25 40.0002C11.25 39.6687 11.3817 39.3507 11.6161 39.1163C11.8505 38.8819 12.1685 38.7502 12.5 38.7502H64.4812L44.1156 18.3846C43.9995 18.2684 43.9074 18.1306 43.8445 17.9788C43.7817 17.8271 43.7493 17.6645 43.7493 17.5002C43.7493 17.336 43.7817 17.1733 43.8445 17.0216C43.9074 16.8698 43.9995 16.732 44.1156 16.6158C44.2318 16.4997 44.3696 16.4076 44.5214 16.3447C44.6731 16.2819 44.8358 16.2495 45 16.2495C45.1642 16.2495 45.3269 16.2819 45.4786 16.3447C45.6304 16.4076 45.7682 16.4997 45.8844 16.6158L68.3844 39.1158C68.5006 39.2319 68.5928 39.3698 68.6557 39.5215C68.7186 39.6733 68.751 39.8359 68.751 40.0002C68.751 40.1645 68.7186 40.3271 68.6557 40.4789C68.5928 40.6306 68.5006 40.7685 68.3844 40.8846L45.8844 63.3846C45.7683 63.5008 45.6304 63.593 45.4787 63.6559C45.3269 63.7188 45.1643 63.7512 45 63.7512C44.8357 63.7512 44.6731 63.7188 44.5213 63.6559C44.3696 63.593 44.2317 63.5008 44.1156 63.3846Z" fill="white"/>
</svg>
