<svg width="12" height="12" viewBox="0 0 12 12" fill="none" xmlns="http://www.w3.org/2000/svg">
<path fill-rule="evenodd" clip-rule="evenodd" d="M6 12C2.6862 12 0 9.3138 0 6C0 2.6862 2.6862 0 6 0C9.3138 0 12 2.6862 12 6C12 9.3138 9.3138 12 6 12ZM5.55 4.8V9H6.45V4.8H5.55ZM6 4.2C6.15913 4.2 6.31174 4.13679 6.42426 4.02426C6.53679 3.91174 6.6 3.75913 6.6 3.6C6.6 3.44087 6.53679 3.28826 6.42426 3.17574C6.31174 3.06321 6.15913 3 6 3C5.84087 3 5.68826 3.06321 5.57574 3.17574C5.46321 3.28826 5.4 3.44087 5.4 3.6C5.4 3.75913 5.46321 3.91174 5.57574 4.02426C5.68826 4.13679 5.84087 4.2 6 4.2Z" fill="black"/>
</svg>
