<svg width="20" height="20" viewBox="0 0 20 20" fill="none" xmlns="http://www.w3.org/2000/svg">
<path d="M10.005 3.5791C7.78 3.5791 5.55667 4.23244 3.63417 5.53994H0L1.63583 7.3191C0.890505 7.99817 0.368014 8.8868 0.137 9.86827C-0.0940136 10.8497 -0.0227454 11.8781 0.341442 12.8183C0.70563 13.7586 1.3457 14.5666 2.17758 15.1364C3.00945 15.7062 3.99421 16.011 5.0025 16.0108C6.26229 16.0115 7.47561 15.5351 8.39833 14.6774L10 16.4208L11.6017 14.6791C12.5236 15.5363 13.7361 16.0122 14.995 16.0108C16.3208 16.0108 17.5923 15.4842 18.5299 14.5469C19.4676 13.6096 19.9946 12.3382 19.995 11.0124C19.9959 10.3171 19.8512 9.62929 19.5704 8.99322C19.2895 8.35714 18.8786 7.78688 18.3642 7.3191L20 5.53994H16.375C14.4969 4.26123 12.2771 3.57793 10.005 3.5791ZM10 5.21244C11.2758 5.21244 12.5525 5.46494 13.7533 5.96494C11.6192 6.7816 10 8.6916 10 10.9166C10 8.69077 8.38167 6.7816 6.24667 5.96494C7.43582 5.46884 8.71151 5.21252 10 5.21244ZM5.00167 7.63077C5.44586 7.63077 5.88571 7.71826 6.29609 7.88825C6.70648 8.05823 7.07936 8.30739 7.39346 8.62148C7.70755 8.93558 7.9567 9.30846 8.12669 9.71884C8.29668 10.1292 8.38417 10.5691 8.38417 11.0133C8.38417 11.4575 8.29668 11.8973 8.12669 12.3077C7.9567 12.7181 7.70755 13.091 7.39346 13.4051C7.07936 13.7192 6.70648 13.9683 6.29609 14.1383C5.88571 14.3083 5.44586 14.3958 5.00167 14.3958C4.10457 14.3958 3.24422 14.0394 2.60988 13.4051C1.97554 12.7707 1.61917 11.9104 1.61917 11.0133C1.61917 10.1162 1.97554 9.25582 2.60988 8.62148C3.24422 7.98714 4.10457 7.63077 5.00167 7.63077ZM14.995 7.63244C15.439 7.63227 15.8787 7.71957 16.289 7.88934C16.6993 8.05911 17.0722 8.30804 17.3863 8.6219C17.7004 8.93576 17.9496 9.30841 18.1196 9.71858C18.2897 10.1288 18.3773 10.5684 18.3775 11.0124C18.3777 11.4565 18.2904 11.8962 18.1206 12.3065C17.9508 12.7168 17.7019 13.0896 17.388 13.4037C17.0742 13.7178 16.7015 13.967 16.2914 14.1371C15.8812 14.3072 15.4415 14.3948 14.9975 14.3949C14.1007 14.3953 13.2406 14.0393 12.6062 13.4055C11.9719 12.7716 11.6153 11.9117 11.615 11.0149C11.6147 10.1182 11.9706 9.25801 12.6045 8.62366C13.2383 7.98932 14.0982 7.63277 14.995 7.63244ZM5.00167 9.24077C4.53135 9.24077 4.0803 9.4276 3.74773 9.76017C3.41517 10.0927 3.22833 10.5438 3.22833 11.0141C3.22833 11.4844 3.41517 11.9355 3.74773 12.268C4.0803 12.6006 4.53135 12.7874 5.00167 12.7874C5.47198 12.7874 5.92304 12.6006 6.2556 12.268C6.58817 11.9355 6.775 11.4844 6.775 11.0141C6.775 10.5438 6.58817 10.0927 6.2556 9.76017C5.92304 9.4276 5.47198 9.24077 5.00167 9.24077ZM14.995 9.24077C14.5247 9.24077 14.0736 9.4276 13.7411 9.76017C13.4085 10.0927 13.2217 10.5438 13.2217 11.0141C13.2217 11.4844 13.4085 11.9355 13.7411 12.268C14.0736 12.6006 14.5247 12.7874 14.995 12.7874C15.4653 12.7874 15.9164 12.6006 16.2489 12.268C16.5815 11.9355 16.7683 11.4844 16.7683 11.0141C16.7683 10.5438 16.5815 10.0927 16.2489 9.76017C15.9164 9.4276 15.4653 9.24077 14.995 9.24077Z" fill="white"/>
</svg>
